<svg version="1.2" xmlns="http://www.w3.org/2000/svg" viewBox="0 0 64 64" width="64" height="64">
	<title>jw-bizcard-1</title>
	<style>
		.s0 { fill: none;stroke: #333333;stroke-miterlimit:100;stroke-width: 2.9 } 
		.s1 { fill: #e76f51 } 
	</style>
	<path id="Layer 2" class="s0" d="m32 62c-16.6 0-30-13.4-30-30 0-16.6 13.4-30 30-30 16.6 0 30 13.4 30 30 0 16.6-13.4 30-30 30z"/>
	<path id="JW" class="s1" aria-label="JW"  d="m17 47.4q-2.3 0-4.2-1.1-1.9-1.1-3-3.1-1-1.9-1-4.3v-2q0-0.2 0.1-0.2h4.8q0.1 0 0.1 0.3v1.9q0 1.5 0.9 2.5 0.9 0.9 2.3 0.9 1.3 0 2.2-1 0.9-1.1 0.9-2.4v-20.9q0-0.2 0.2-0.2h4.7q0.1 0 0.1 0.2l0.1 20.9q0 2.3-1.1 4.2-1.1 2-3 3.1-1.8 1.2-4.1 1.2zm20.3-0.4h-5.1q-0.2 0-0.2-0.2l-4.9-28.9q-0.1-0.1 0.1-0.1h4.7q0.2 0 0.2 0.1l2.7 19 2.8-19q0-0.1 0.2-0.1h3.8q0.2 0 0.2 0.1l2.7 19 2.8-19q0-0.1 0.2-0.1h4.6q0.2 0 0.2 0.1l-5 28.9q0 0.1-0.1 0.1l-0.1 0.1h-5.1q-0.1 0-0.2-0.2l-2.2-15.1-2.1 15.1q0 0.2-0.2 0.2z"/>
</svg>